<?xml version="1.0" encoding="UTF-8" standalone="no"?>
<svg
   xmlns:dc="http://purl.org/dc/elements/1.1/"
   xmlns:cc="http://creativecommons.org/ns#"
   xmlns:rdf="http://www.w3.org/1999/02/22-rdf-syntax-ns#"
   xmlns:svg="http://www.w3.org/2000/svg"
   xmlns="http://www.w3.org/2000/svg"
   xmlns:sodipodi="http://sodipodi.sourceforge.net/DTD/sodipodi-0.dtd"
   xmlns:inkscape="http://www.inkscape.org/namespaces/inkscape"
   viewBox="0.0 0.0 348.0 348.0"
   fill="none"
   version="1.1"
   id="svg831"
   sodipodi:docname="Lucky Dice.svg"
   inkscape:version="0.92.4 (5da689c313, 2019-01-14)">
  <metadata
     id="metadata837">
    <rdf:RDF>
      <cc:Work
         rdf:about="">
        <dc:format>image/svg+xml</dc:format>
        <dc:type
           rdf:resource="http://purl.org/dc/dcmitype/StillImage" />
      </cc:Work>
    </rdf:RDF>
  </metadata>
  <defs
     id="defs835" />
  <sodipodi:namedview
     pagecolor="#ffffff"
     bordercolor="#666666"
     borderopacity="1"
     objecttolerance="10"
     gridtolerance="10"
     guidetolerance="10"
     inkscape:pageopacity="0"
     inkscape:pageshadow="2"
     inkscape:window-width="1366"
     inkscape:window-height="745"
     id="namedview833"
     showgrid="false"
     inkscape:zoom="1.6609195"
     inkscape:cx="169.18339"
     inkscape:cy="174"
     inkscape:window-x="-8"
     inkscape:window-y="-8"
     inkscape:window-maximized="1"
     inkscape:current-layer="svg831" />
  <path
     d="M5.079 5.776h336.913v337.67H5.08z"
     stroke-width="2"
     stroke="#000"
     id="path827" />
  <path
     d="M282.734 40.554c0-8.376 6.966-15.165 15.56-15.165 4.126 0 8.084 1.597 11.001 4.441 2.918 2.844 4.558 6.702 4.558 10.724 0 8.376-6.966 15.165-15.56 15.165-8.593 0-15.559-6.79-15.559-15.165z"
     stroke-width="2"
     stroke="#000"
     id="path829" />
  <path
     inkscape:connector-curvature="0"
     style="stroke:#000000;stroke-width:1.99937008;stroke-miterlimit:4;stroke-dasharray:none"
     d="m 304.38212,306.49819 h 30.55434 v 30.62299 h -30.55425 z"
     id="path827-3" />
  <path
     inkscape:connector-curvature="0"
     style="stroke:#000000;stroke-width:1.9993701;stroke-miterlimit:4;stroke-dasharray:none"
     d="M 129.77237,160.6676 86.427092,85.591368 161.67201,42.148698 205.01715,117.22469 Z"
     id="path827-8" />
  <path
     inkscape:connector-curvature="0"
     style="fill:#000000;stroke:#000000;stroke-width:0.95712149"
     d="m 115.04168,97.7016 c -3.47141,2.00422 -7.9519,0.74167 -10.00828,-2.82009 -0.98727,-1.710002 -1.27248,-3.732502 -0.79177,-5.621952 0.48047,-1.88987 1.68697,-3.4927 3.35388,-4.45509 3.4714,-2.00421 7.95189,-0.74166 10.00827,2.82008 2.05614,3.56134 0.90887,8.073082 -2.5621,10.077052 z"
     id="path829-2" />
  <path
     inkscape:connector-curvature="0"
     style="fill:#000000;stroke:#000000;stroke-width:0.95712149"
     d="m 141.04168,142.73492 c -3.47141,2.00422 -7.9519,0.74167 -10.00828,-2.82009 -0.98727,-1.71 -1.27248,-3.7325 -0.79177,-5.62195 0.48047,-1.88987 1.68697,-3.4927 3.35388,-4.45509 3.4714,-2.00421 7.95189,-0.74166 10.00827,2.82008 2.05614,3.56134 0.90887,8.07308 -2.5621,10.07705 z"
     id="path829-2-5" />
  <path
     inkscape:connector-curvature="0"
     style="fill:#000000;stroke:#000000;stroke-width:0.95712149"
     d="m 158.34295,72.701598 c -3.47141,2.00422 -7.9519,0.74167 -10.00828,-2.82009 -0.98727,-1.71 -1.27248,-3.7325 -0.79177,-5.62195 0.48047,-1.88987 1.68697,-3.4927 3.35388,-4.45509 3.4714,-2.00421 7.95189,-0.74166 10.00827,2.82008 2.05614,3.56134 0.90887,8.07308 -2.5621,10.07705 z"
     id="path829-2-2" />
  <path
     inkscape:connector-curvature="0"
     style="fill:#000000;stroke:#000000;stroke-width:0.95712149"
     d="m 184.34295,117.73492 c -3.47141,2.00422 -7.9519,0.74167 -10.00828,-2.82009 -0.98727,-1.71 -1.27248,-3.7325 -0.79177,-5.62195 0.48047,-1.88987 1.68697,-3.4927 3.35388,-4.45509 3.4714,-2.00421 7.95189,-0.74166 10.00827,2.82008 2.05614,3.56134 0.90887,8.07308 -2.5621,10.07705 z"
     id="path829-2-5-0" />
  <path
     inkscape:connector-curvature="0"
     style="fill:#000000;stroke:#000000;stroke-width:0.95712149"
     d="m 148.75631,107.90706 c -3.4714,2.00421 -7.9519,0.74166 -10.00828,-2.82009 -0.98727,-1.71 -1.27247,-3.73251 -0.79177,-5.62196 0.48047,-1.88987 1.68698,-3.4927 3.35388,-4.45509 3.4714,-2.004212 7.9519,-0.74166 10.00827,2.82009 2.05614,3.56134 0.90888,8.07308 -2.5621,10.07705 z"
     id="path829-2-5-0-9" />
  <path
     inkscape:connector-curvature="0"
     style="stroke:#000000;stroke-width:1.9993701;stroke-miterlimit:4;stroke-dasharray:none"
     d="m 209.78919,253.69075 -15.05365,-85.37355 85.56536,-15.08748 15.05361,85.37327 z"
     id="path827-8-3" />
  <path
     inkscape:connector-curvature="0"
     style="fill:#000000;stroke:#000000;stroke-width:0.95712149"
     d="m 217.48251,189.48386 c -3.94754,0.69606 -7.726,-2.02276 -8.44018,-6.07305 -0.34287,-1.94454 0.0809,-3.94261 1.1788,-5.5537 1.09787,-1.61157 2.77981,-2.70509 4.67535,-3.03932 3.94753,-0.69606 7.726,2.02277 8.44017,6.07303 0.71409,4.04981 -1.90709,7.89707 -5.85414,8.59304 z"
     id="path829-2-0" />
  <path
     inkscape:connector-curvature="0"
     style="fill:#000000;stroke:#000000;stroke-width:0.95712149"
     d="m 275.75261,232.01146 c -3.94754,0.69606 -7.72601,-2.02277 -8.44018,-6.07305 -0.34288,-1.94454 0.0808,-3.94262 1.1788,-5.55371 1.09787,-1.61157 2.7798,-2.70509 4.67534,-3.03932 3.94753,-0.69605 7.726,2.02277 8.44018,6.07304 0.71409,4.0498 -1.9071,7.89706 -5.85414,8.59304 z"
     id="path829-2-5-0-99" />
  <path
     inkscape:connector-curvature="0"
     style="fill:#000000;stroke:#000000;stroke-width:0.95712149"
     d="m 245.67343,210.60494 c -3.94753,0.69606 -7.726,-2.02277 -8.44018,-6.07305 -0.34287,-1.94454 0.0809,-3.94262 1.1788,-5.55371 1.09787,-1.61157 2.77982,-2.70509 4.67535,-3.03932 3.94753,-0.69606 7.72601,2.02277 8.44017,6.07304 0.71409,4.04981 -1.90709,7.89707 -5.85414,8.59304 z"
     id="path829-2-5-0-9-3" />
  <path
     inkscape:connector-curvature="0"
     style="stroke:#000000;stroke-width:1.9993701;stroke-miterlimit:4;stroke-dasharray:none"
     d="M 168.31644,215.88114 153.26277,301.25468 67.697409,286.1672 82.751019,200.79393 Z"
     id="path827-8-2" />
  <path
     inkscape:connector-curvature="0"
     style="fill:#000000;stroke:#000000;stroke-width:0.95712149"
     d="m 139.12703,273.5846 c 3.94754,0.69606 6.56825,4.54324 5.85407,8.59352 -0.34288,1.94453 -1.42438,3.67721 -3.00719,4.8156 -1.58284,1.13888 -3.53736,1.5912 -5.4329,1.25697 -3.94753,-0.69607 -6.56822,-4.54324 -5.85406,-8.5935 0.71409,-4.04981 4.49304,-6.76856 8.44008,-6.07259 z"
     id="path829-2-8" />
  <path
     inkscape:connector-curvature="0"
     style="fill:#000000;stroke:#000000;stroke-width:0.95712149"
     d="m 98.916349,213.69219 c 3.947541,0.69606 6.568241,4.54323 5.854061,8.59352 -0.34287,1.94454 -1.42438,3.6772 -3.00719,4.81559 -1.58284,1.13889 -3.537351,1.59121 -5.432891,1.25697 -3.94753,-0.69605 -6.56823,-4.54323 -5.85407,-8.5935 0.7141,-4.0498 4.49304,-6.76855 8.44009,-6.07258 z"
     id="path829-2-5-0-3" />
</svg>
